<svg width="450" height="468" viewBox="0 0 450 468" fill="none" xmlns="http://www.w3.org/2000/svg">
<path d="M450 243C450 367.264 349.264 468 225 468C100.736 468 0 367.264 0 243C0 118.736 100.736 18 225 18C349.264 18 450 118.736 450 243ZM112.5 243C112.5 305.132 162.868 355.5 225 355.5C287.132 355.5 337.5 305.132 337.5 243C337.5 180.868 287.132 130.5 225 130.5C162.868 130.5 112.5 180.868 112.5 243Z" fill="#FD0001"/>
<path d="M225 18C270.103 18 314.165 31.5553 351.469 56.907C388.773 82.2588 417.596 118.237 434.2 160.172C450.803 202.108 454.42 248.066 444.581 292.083C434.742 336.1 411.901 376.144 379.022 407.019L302.011 325.009C318.451 309.572 329.871 289.55 334.791 267.542C339.71 245.533 337.902 222.554 329.6 201.586C321.298 180.618 306.886 162.629 288.234 149.954C269.583 137.278 247.552 130.5 225 130.5V18Z" fill="#1C1C1C"/>
<mask id="mask0_615_6836" style="mask-type:alpha" maskUnits="userSpaceOnUse" x="0" y="18" width="450" height="450">
<path d="M450 243C450 367.264 349.264 468 225 468C100.736 468 0 367.264 0 243C0 118.736 100.736 18 225 18C349.264 18 450 118.736 450 243ZM112.5 243C112.5 305.132 162.868 355.5 225 355.5C287.132 355.5 337.5 305.132 337.5 243C337.5 180.868 287.132 130.5 225 130.5C162.868 130.5 112.5 180.868 112.5 243Z" fill="#FD0001"/>
</mask>
<g mask="url(#mask0_615_6836)">
<g opacity="0.3">
<line x1="-547.707" y1="508.979" x2="17.9783" y2="-56.706" stroke="white" stroke-width="2"/>
<line x1="-535.707" y1="508.978" x2="29.9783" y2="-56.707" stroke="white" stroke-width="2"/>
<line x1="-523.707" y1="508.979" x2="41.9783" y2="-56.706" stroke="white" stroke-width="2"/>
<line x1="-511.707" y1="508.979" x2="53.9783" y2="-56.706" stroke="white" stroke-width="2"/>
<line x1="-499.707" y1="508.979" x2="65.9783" y2="-56.706" stroke="white" stroke-width="2"/>
<line x1="-487.707" y1="508.979" x2="77.9783" y2="-56.706" stroke="white" stroke-width="2"/>
<line x1="-475.707" y1="508.979" x2="89.9783" y2="-56.706" stroke="white" stroke-width="2"/>
<line x1="-463.707" y1="508.979" x2="101.978" y2="-56.706" stroke="white" stroke-width="2"/>
<line x1="-451.707" y1="508.979" x2="113.978" y2="-56.706" stroke="white" stroke-width="2"/>
<line x1="-439.707" y1="508.979" x2="125.978" y2="-56.706" stroke="white" stroke-width="2"/>
<line x1="-427.707" y1="508.979" x2="137.978" y2="-56.706" stroke="white" stroke-width="2"/>
<line x1="-415.707" y1="508.979" x2="149.978" y2="-56.706" stroke="white" stroke-width="2"/>
<line x1="-403.707" y1="508.979" x2="161.978" y2="-56.706" stroke="white" stroke-width="2"/>
<line x1="-391.707" y1="508.979" x2="173.978" y2="-56.706" stroke="white" stroke-width="2"/>
<line x1="-379.707" y1="508.979" x2="185.978" y2="-56.706" stroke="white" stroke-width="2"/>
<line x1="-367.707" y1="508.979" x2="197.978" y2="-56.706" stroke="white" stroke-width="2"/>
<line x1="-355.707" y1="508.979" x2="209.978" y2="-56.706" stroke="white" stroke-width="2"/>
<line x1="-343.707" y1="508.979" x2="221.978" y2="-56.706" stroke="white" stroke-width="2"/>
<line x1="-331.707" y1="508.979" x2="233.978" y2="-56.706" stroke="white" stroke-width="2"/>
<line x1="-319.707" y1="508.979" x2="245.978" y2="-56.706" stroke="white" stroke-width="2"/>
<line x1="-307.707" y1="508.979" x2="257.978" y2="-56.706" stroke="white" stroke-width="2"/>
<line x1="-295.707" y1="508.979" x2="269.978" y2="-56.706" stroke="white" stroke-width="2"/>
<line x1="-283.707" y1="508.979" x2="281.978" y2="-56.706" stroke="white" stroke-width="2"/>
<line x1="-271.707" y1="508.979" x2="293.978" y2="-56.706" stroke="white" stroke-width="2"/>
<line x1="-259.707" y1="508.979" x2="305.978" y2="-56.706" stroke="white" stroke-width="2"/>
<line x1="-247.707" y1="508.979" x2="317.978" y2="-56.706" stroke="white" stroke-width="2"/>
<line x1="-235.707" y1="508.979" x2="329.978" y2="-56.706" stroke="white" stroke-width="2"/>
<line x1="-223.707" y1="508.979" x2="341.978" y2="-56.706" stroke="white" stroke-width="2"/>
<line x1="-211.707" y1="508.979" x2="353.978" y2="-56.706" stroke="white" stroke-width="2"/>
<line x1="-199.707" y1="508.979" x2="365.978" y2="-56.706" stroke="white" stroke-width="2"/>
<line x1="-187.707" y1="508.979" x2="377.978" y2="-56.706" stroke="white" stroke-width="2"/>
<line x1="-175.707" y1="508.979" x2="389.978" y2="-56.706" stroke="white" stroke-width="2"/>
<line x1="-163.707" y1="508.979" x2="401.978" y2="-56.706" stroke="white" stroke-width="2"/>
<line x1="-151.707" y1="508.979" x2="413.978" y2="-56.706" stroke="white" stroke-width="2"/>
<line x1="-139.707" y1="508.979" x2="425.978" y2="-56.706" stroke="white" stroke-width="2"/>
<line x1="-127.707" y1="508.979" x2="437.978" y2="-56.706" stroke="white" stroke-width="2"/>
<line x1="-115.707" y1="508.979" x2="449.978" y2="-56.706" stroke="white" stroke-width="2"/>
<line x1="-103.707" y1="508.979" x2="461.978" y2="-56.706" stroke="white" stroke-width="2"/>
<line x1="-91.7071" y1="508.979" x2="473.978" y2="-56.706" stroke="white" stroke-width="2"/>
<line x1="-79.7071" y1="508.979" x2="485.978" y2="-56.706" stroke="white" stroke-width="2"/>
<line x1="-67.7071" y1="508.979" x2="497.978" y2="-56.706" stroke="white" stroke-width="2"/>
<line x1="-55.7071" y1="508.979" x2="509.978" y2="-56.706" stroke="white" stroke-width="2"/>
<line x1="-43.7071" y1="508.979" x2="521.978" y2="-56.706" stroke="white" stroke-width="2"/>
<line x1="-31.7071" y1="508.979" x2="533.978" y2="-56.706" stroke="white" stroke-width="2"/>
<line x1="-19.7071" y1="508.979" x2="545.978" y2="-56.706" stroke="white" stroke-width="2"/>
<line x1="-7.70711" y1="508.979" x2="557.978" y2="-56.706" stroke="white" stroke-width="2"/>
<line x1="4.29289" y1="508.979" x2="569.978" y2="-56.706" stroke="white" stroke-width="2"/>
<line x1="16.2929" y1="508.979" x2="581.978" y2="-56.706" stroke="white" stroke-width="2"/>
<line x1="28.2929" y1="508.979" x2="593.978" y2="-56.706" stroke="white" stroke-width="2"/>
<line x1="40.2929" y1="508.979" x2="605.978" y2="-56.706" stroke="white" stroke-width="2"/>
<line x1="52.2929" y1="508.979" x2="617.978" y2="-56.706" stroke="white" stroke-width="2"/>
<line x1="64.2929" y1="508.979" x2="629.978" y2="-56.706" stroke="white" stroke-width="2"/>
<line x1="76.2929" y1="508.979" x2="641.978" y2="-56.706" stroke="white" stroke-width="2"/>
<line x1="88.2929" y1="508.979" x2="653.978" y2="-56.706" stroke="white" stroke-width="2"/>
<line x1="100.293" y1="508.979" x2="665.978" y2="-56.706" stroke="white" stroke-width="2"/>
<line x1="112.293" y1="508.979" x2="677.978" y2="-56.706" stroke="white" stroke-width="2"/>
<line x1="124.293" y1="508.979" x2="689.978" y2="-56.706" stroke="white" stroke-width="2"/>
<line x1="136.293" y1="508.979" x2="701.978" y2="-56.706" stroke="white" stroke-width="2"/>
<line x1="148.293" y1="508.979" x2="713.978" y2="-56.706" stroke="white" stroke-width="2"/>
<line x1="160.293" y1="508.979" x2="725.978" y2="-56.706" stroke="white" stroke-width="2"/>
<line x1="172.293" y1="508.979" x2="737.978" y2="-56.706" stroke="white" stroke-width="2"/>
<line x1="184.293" y1="508.979" x2="749.978" y2="-56.706" stroke="white" stroke-width="2"/>
<line x1="196.293" y1="508.979" x2="761.978" y2="-56.706" stroke="white" stroke-width="2"/>
<line x1="208.293" y1="508.979" x2="773.978" y2="-56.706" stroke="white" stroke-width="2"/>
<line x1="220.293" y1="508.979" x2="785.978" y2="-56.706" stroke="white" stroke-width="2"/>
<line x1="232.293" y1="508.979" x2="797.978" y2="-56.706" stroke="white" stroke-width="2"/>
<line x1="244.293" y1="508.979" x2="809.978" y2="-56.706" stroke="white" stroke-width="2"/>
<line x1="256.293" y1="508.979" x2="821.978" y2="-56.706" stroke="white" stroke-width="2"/>
<line x1="268.293" y1="508.979" x2="833.978" y2="-56.706" stroke="white" stroke-width="2"/>
<line x1="280.293" y1="508.979" x2="845.978" y2="-56.706" stroke="white" stroke-width="2"/>
<line x1="292.293" y1="508.979" x2="857.978" y2="-56.706" stroke="white" stroke-width="2"/>
<line x1="304.293" y1="508.979" x2="869.978" y2="-56.706" stroke="white" stroke-width="2"/>
<line x1="316.293" y1="508.979" x2="881.978" y2="-56.706" stroke="white" stroke-width="2"/>
<line x1="328.293" y1="508.979" x2="893.978" y2="-56.706" stroke="white" stroke-width="2"/>
<line x1="340.293" y1="508.979" x2="905.978" y2="-56.706" stroke="white" stroke-width="2"/>
<line x1="352.293" y1="508.979" x2="917.978" y2="-56.706" stroke="white" stroke-width="2"/>
<line x1="364.293" y1="508.979" x2="929.978" y2="-56.706" stroke="white" stroke-width="2"/>
<line x1="376.293" y1="508.979" x2="941.978" y2="-56.706" stroke="white" stroke-width="2"/>
<line x1="388.293" y1="508.979" x2="953.978" y2="-56.706" stroke="white" stroke-width="2"/>
<line x1="400.293" y1="508.979" x2="965.978" y2="-56.706" stroke="white" stroke-width="2"/>
<line x1="412.293" y1="508.979" x2="977.978" y2="-56.706" stroke="white" stroke-width="2"/>
<line x1="424.293" y1="508.979" x2="989.978" y2="-56.706" stroke="white" stroke-width="2"/>
<line x1="436.293" y1="508.979" x2="1001.98" y2="-56.706" stroke="white" stroke-width="2"/>
<line x1="448.293" y1="508.979" x2="1013.98" y2="-56.706" stroke="white" stroke-width="2"/>
</g>
</g>
<path d="M7.656 25.36C6.528 25.36 5.512 25.096 4.608 24.568C3.712 24.032 3 23.292 2.472 22.348C1.944 21.404 1.68 20.32 1.68 19.096V13.84C1.68 12.528 1.94 11.388 2.46 10.42C2.988 9.452 3.724 8.704 4.668 8.176C5.62 7.648 6.724 7.384 7.98 7.384C8.852 7.384 9.68 7.532 10.464 7.828C11.248 8.116 11.944 8.58 12.552 9.22L10.464 11.248C10.16 10.888 9.788 10.604 9.348 10.396C8.916 10.188 8.46 10.084 7.98 10.084C7.308 10.084 6.72 10.244 6.216 10.564C5.712 10.876 5.32 11.288 5.04 11.8C4.768 12.312 4.632 12.86 4.632 13.444V16.312L4.104 15.736C4.6 15.16 5.196 14.712 5.892 14.392C6.588 14.064 7.316 13.9 8.076 13.9C9.164 13.9 10.124 14.148 10.956 14.644C11.788 15.132 12.444 15.804 12.924 16.66C13.404 17.508 13.644 18.476 13.644 19.564C13.644 20.644 13.368 21.624 12.816 22.504C12.272 23.376 11.548 24.072 10.644 24.592C9.74 25.104 8.744 25.36 7.656 25.36ZM7.656 22.588C8.216 22.588 8.728 22.456 9.192 22.192C9.656 21.92 10.024 21.556 10.296 21.1C10.576 20.636 10.716 20.124 10.716 19.564C10.716 19.004 10.58 18.492 10.308 18.028C10.036 17.564 9.668 17.196 9.204 16.924C8.748 16.644 8.24 16.504 7.68 16.504C7.12 16.504 6.608 16.644 6.144 16.924C5.68 17.196 5.312 17.564 5.04 18.028C4.768 18.492 4.632 19.004 4.632 19.564C4.632 20.108 4.764 20.612 5.028 21.076C5.3 21.532 5.664 21.9 6.12 22.18C6.584 22.452 7.096 22.588 7.656 22.588ZM16.1063 24.976V22.456L23.4983 15.868C24.0743 15.356 24.4743 14.872 24.6983 14.416C24.9223 13.96 25.0343 13.52 25.0343 13.096C25.0343 12.52 24.9103 12.008 24.6623 11.56C24.4143 11.104 24.0703 10.744 23.6303 10.48C23.1983 10.216 22.6983 10.084 22.1303 10.084C21.5303 10.084 20.9983 10.224 20.5343 10.504C20.0783 10.776 19.7223 11.14 19.4663 11.596C19.2103 12.052 19.0903 12.544 19.1063 13.072H16.1303C16.1303 11.92 16.3863 10.916 16.8983 10.06C17.4183 9.204 18.1303 8.54 19.0343 8.068C19.9463 7.596 20.9983 7.36 22.1903 7.36C23.2943 7.36 24.2863 7.608 25.1663 8.104C26.0463 8.592 26.7383 9.272 27.2422 10.144C27.7463 11.008 27.9983 12.004 27.9983 13.132C27.9983 13.956 27.8863 14.648 27.6623 15.208C27.4383 15.768 27.1023 16.284 26.6543 16.756C26.2143 17.228 25.6663 17.752 25.0103 18.328L19.7663 22.972L19.5023 22.252H27.9983V24.976H16.1063ZM33.2831 25L31.3631 23.08L46.7351 7.72L48.6551 9.652L33.2831 25ZM45.0551 25.36C44.2631 25.36 43.5391 25.168 42.8831 24.784C42.2351 24.392 41.7151 23.872 41.3231 23.224C40.9311 22.568 40.7351 21.84 40.7351 21.04C40.7351 20.256 40.9351 19.536 41.3351 18.88C41.7351 18.224 42.2631 17.7 42.9191 17.308C43.5751 16.916 44.2871 16.72 45.0551 16.72C45.8471 16.72 46.5711 16.916 47.2271 17.308C47.8831 17.692 48.4031 18.212 48.7871 18.868C49.1791 19.516 49.3751 20.24 49.3751 21.04C49.3751 21.84 49.1791 22.568 48.7871 23.224C48.4031 23.872 47.8831 24.392 47.2271 24.784C46.5711 25.168 45.8471 25.36 45.0551 25.36ZM45.0551 22.888C45.3831 22.888 45.6871 22.804 45.9671 22.636C46.2551 22.468 46.4831 22.244 46.6511 21.964C46.8191 21.684 46.9031 21.376 46.9031 21.04C46.9031 20.704 46.8191 20.396 46.6511 20.116C46.4831 19.836 46.2551 19.612 45.9671 19.444C45.6871 19.276 45.3831 19.192 45.0551 19.192C44.7191 19.192 44.4111 19.276 44.1311 19.444C43.8511 19.612 43.6231 19.836 43.4471 20.116C43.2791 20.396 43.1951 20.704 43.1951 21.04C43.1951 21.376 43.2791 21.684 43.4471 21.964C43.6231 22.244 43.8511 22.468 44.1311 22.636C44.4111 22.804 44.7191 22.888 45.0551 22.888ZM34.9631 16C34.1711 16 33.4471 15.808 32.7911 15.424C32.1351 15.032 31.6111 14.512 31.2191 13.864C30.8351 13.208 30.6431 12.48 30.6431 11.68C30.6431 10.896 30.8431 10.176 31.2431 9.52C31.6431 8.864 32.1711 8.34 32.8271 7.948C33.4831 7.556 34.1951 7.36 34.9631 7.36C35.7551 7.36 36.4751 7.556 37.1231 7.948C37.7791 8.332 38.3031 8.852 38.6951 9.508C39.0871 10.156 39.2831 10.88 39.2831 11.68C39.2831 12.48 39.0871 13.208 38.6951 13.864C38.3031 14.512 37.7791 15.032 37.1231 15.424C36.4751 15.808 35.7551 16 34.9631 16ZM34.9631 13.528C35.2991 13.528 35.6071 13.444 35.8871 13.276C36.1671 13.108 36.3911 12.884 36.5591 12.604C36.7271 12.324 36.8111 12.016 36.8111 11.68C36.8111 11.344 36.7271 11.036 36.5591 10.756C36.3911 10.476 36.1671 10.252 35.8871 10.084C35.6071 9.916 35.2991 9.832 34.9631 9.832C34.6271 9.832 34.3191 9.916 34.0391 10.084C33.7591 10.252 33.5351 10.476 33.3671 10.756C33.1991 11.036 33.1151 11.344 33.1151 11.68C33.1151 12.016 33.1991 12.324 33.3671 12.604C33.5351 12.884 33.7591 13.108 34.0391 13.276C34.3191 13.444 34.6271 13.528 34.9631 13.528Z" fill="#FD0001"/>
<path d="M406.374 25.324C405.51 25.324 404.694 25.156 403.926 24.82C403.158 24.484 402.49 24.008 401.922 23.392C401.362 22.776 400.958 22.048 400.71 21.208L403.506 20.452C403.706 21.14 404.07 21.672 404.598 22.048C405.134 22.416 405.722 22.596 406.362 22.588C406.93 22.588 407.438 22.456 407.886 22.192C408.334 21.928 408.686 21.572 408.942 21.124C409.198 20.668 409.326 20.16 409.326 19.6C409.326 18.744 409.05 18.028 408.498 17.452C407.946 16.876 407.234 16.588 406.362 16.588C406.098 16.588 405.838 16.624 405.582 16.696C405.334 16.768 405.094 16.868 404.862 16.996L403.542 14.716L409.35 9.748L409.602 10.444H401.382V7.72H411.978V10.456L407.31 14.944L407.286 14.092C408.334 14.164 409.226 14.456 409.962 14.968C410.706 15.48 411.274 16.14 411.666 16.948C412.066 17.756 412.266 18.64 412.266 19.6C412.266 20.688 411.998 21.664 411.462 22.528C410.934 23.392 410.222 24.076 409.326 24.58C408.438 25.076 407.454 25.324 406.374 25.324ZM421.027 25.36C419.883 25.36 418.867 25.128 417.979 24.664C417.091 24.2 416.395 23.556 415.891 22.732C415.387 21.908 415.135 20.964 415.135 19.9C415.135 18.948 415.355 18.064 415.795 17.248C416.235 16.432 416.879 15.78 417.727 15.292L417.667 16.216C417.003 15.712 416.487 15.132 416.119 14.476C415.759 13.812 415.579 13.068 415.579 12.244C415.579 11.252 415.811 10.392 416.275 9.664C416.747 8.936 417.391 8.372 418.207 7.972C419.023 7.564 419.963 7.36 421.027 7.36C422.091 7.36 423.031 7.564 423.847 7.972C424.671 8.372 425.315 8.936 425.779 9.664C426.251 10.392 426.487 11.252 426.487 12.244C426.487 13.068 426.311 13.808 425.959 14.464C425.615 15.12 425.091 15.712 424.387 16.24L424.375 15.304C425.207 15.776 425.843 16.424 426.283 17.248C426.731 18.064 426.955 18.948 426.955 19.9C426.955 20.964 426.699 21.908 426.187 22.732C425.683 23.556 424.983 24.2 424.087 24.664C423.199 25.128 422.179 25.36 421.027 25.36ZM421.027 22.636C421.875 22.636 422.563 22.404 423.091 21.94C423.627 21.476 423.895 20.796 423.895 19.9C423.895 19.004 423.631 18.324 423.103 17.86C422.575 17.388 421.883 17.152 421.027 17.152C420.179 17.152 419.495 17.388 418.975 17.86C418.455 18.324 418.195 19.004 418.195 19.9C418.195 20.796 418.455 21.476 418.975 21.94C419.495 22.404 420.179 22.636 421.027 22.636ZM421.027 14.404C421.739 14.404 422.315 14.228 422.755 13.876C423.203 13.516 423.427 12.972 423.427 12.244C423.427 11.516 423.203 10.976 422.755 10.624C422.315 10.264 421.739 10.084 421.027 10.084C420.323 10.084 419.747 10.264 419.299 10.624C418.859 10.976 418.639 11.516 418.639 12.244C418.639 12.972 418.859 13.516 419.299 13.876C419.747 14.228 420.323 14.404 421.027 14.404ZM432.471 25L430.551 23.08L445.923 7.72L447.843 9.652L432.471 25ZM444.243 25.36C443.451 25.36 442.727 25.168 442.071 24.784C441.423 24.392 440.903 23.872 440.511 23.224C440.119 22.568 439.923 21.84 439.923 21.04C439.923 20.256 440.123 19.536 440.523 18.88C440.923 18.224 441.451 17.7 442.107 17.308C442.763 16.916 443.475 16.72 444.243 16.72C445.035 16.72 445.759 16.916 446.415 17.308C447.071 17.692 447.591 18.212 447.975 18.868C448.367 19.516 448.563 20.24 448.563 21.04C448.563 21.84 448.367 22.568 447.975 23.224C447.591 23.872 447.071 24.392 446.415 24.784C445.759 25.168 445.035 25.36 444.243 25.36ZM444.243 22.888C444.571 22.888 444.875 22.804 445.155 22.636C445.443 22.468 445.671 22.244 445.839 21.964C446.007 21.684 446.091 21.376 446.091 21.04C446.091 20.704 446.007 20.396 445.839 20.116C445.671 19.836 445.443 19.612 445.155 19.444C444.875 19.276 444.571 19.192 444.243 19.192C443.907 19.192 443.599 19.276 443.319 19.444C443.039 19.612 442.811 19.836 442.635 20.116C442.467 20.396 442.383 20.704 442.383 21.04C442.383 21.376 442.467 21.684 442.635 21.964C442.811 22.244 443.039 22.468 443.319 22.636C443.599 22.804 443.907 22.888 444.243 22.888ZM434.151 16C433.359 16 432.635 15.808 431.979 15.424C431.323 15.032 430.799 14.512 430.407 13.864C430.023 13.208 429.831 12.48 429.831 11.68C429.831 10.896 430.031 10.176 430.431 9.52C430.831 8.864 431.359 8.34 432.015 7.948C432.671 7.556 433.383 7.36 434.151 7.36C434.943 7.36 435.663 7.556 436.311 7.948C436.967 8.332 437.491 8.852 437.883 9.508C438.275 10.156 438.471 10.88 438.471 11.68C438.471 12.48 438.275 13.208 437.883 13.864C437.491 14.512 436.967 15.032 436.311 15.424C435.663 15.808 434.943 16 434.151 16ZM434.151 13.528C434.487 13.528 434.795 13.444 435.075 13.276C435.355 13.108 435.579 12.884 435.747 12.604C435.915 12.324 435.999 12.016 435.999 11.68C435.999 11.344 435.915 11.036 435.747 10.756C435.579 10.476 435.355 10.252 435.075 10.084C434.795 9.916 434.487 9.832 434.151 9.832C433.815 9.832 433.507 9.916 433.227 10.084C432.947 10.252 432.723 10.476 432.555 10.756C432.387 11.036 432.303 11.344 432.303 11.68C432.303 12.016 432.387 12.324 432.555 12.604C432.723 12.884 432.947 13.108 433.227 13.276C433.507 13.444 433.815 13.528 434.151 13.528Z" fill="#1C1C1C"/>
<path d="M1.05 48V37.2H2.6775L6.4125 44.85L10.1475 37.2H11.775V48H10.0875V41.0775L6.7725 48H6.0525L2.745 41.0775V48H1.05ZM16.147 48.225C15.562 48.225 15.067 48.115 14.662 47.895C14.257 47.67 13.9495 47.3725 13.7395 47.0025C13.5345 46.6325 13.432 46.225 13.432 45.78C13.432 45.39 13.497 45.04 13.627 44.73C13.757 44.415 13.957 44.145 14.227 43.92C14.497 43.69 14.847 43.5025 15.277 43.3575C15.602 43.2525 15.982 43.1575 16.417 43.0725C16.857 42.9875 17.332 42.91 17.842 42.84C18.357 42.765 18.8945 42.685 19.4545 42.6L18.8095 42.9675C18.8145 42.4075 18.6895 41.995 18.4345 41.73C18.1795 41.465 17.7495 41.3325 17.1445 41.3325C16.7795 41.3325 16.427 41.4175 16.087 41.5875C15.747 41.7575 15.5095 42.05 15.3745 42.465L13.7245 41.9475C13.9245 41.2625 14.3045 40.7125 14.8645 40.2975C15.4295 39.8825 16.1895 39.675 17.1445 39.675C17.8645 39.675 18.497 39.7925 19.042 40.0275C19.592 40.2625 19.9995 40.6475 20.2645 41.1825C20.4095 41.4675 20.497 41.76 20.527 42.06C20.557 42.355 20.572 42.6775 20.572 43.0275V48H18.9895V46.245L19.252 46.53C18.887 47.115 18.4595 47.545 17.9695 47.82C17.4845 48.09 16.877 48.225 16.147 48.225ZM16.507 46.785C16.917 46.785 17.267 46.7125 17.557 46.5675C17.847 46.4225 18.077 46.245 18.247 46.035C18.422 45.825 18.5395 45.6275 18.5995 45.4425C18.6945 45.2125 18.747 44.95 18.757 44.655C18.772 44.355 18.7795 44.1125 18.7795 43.9275L19.3345 44.0925C18.7895 44.1775 18.322 44.2525 17.932 44.3175C17.542 44.3825 17.207 44.445 16.927 44.505C16.647 44.56 16.3995 44.6225 16.1845 44.6925C15.9745 44.7675 15.797 44.855 15.652 44.955C15.507 45.055 15.3945 45.17 15.3145 45.3C15.2395 45.43 15.202 45.5825 15.202 45.7575C15.202 45.9575 15.252 46.135 15.352 46.29C15.452 46.44 15.597 46.56 15.787 46.65C15.982 46.74 16.222 46.785 16.507 46.785ZM22.6746 48V36.975H24.4821V48H22.6746ZM28.4537 48L25.9787 39.885L27.7487 39.9L29.3312 45.0975L30.9362 39.9H32.4587L34.0562 45.0975L35.6462 39.9H37.4162L34.9412 48H33.5312L31.6937 42.4275L29.8637 48H28.4537ZM40.5806 48.225C39.9956 48.225 39.5006 48.115 39.0956 47.895C38.6906 47.67 38.3831 47.3725 38.1731 47.0025C37.9681 46.6325 37.8656 46.225 37.8656 45.78C37.8656 45.39 37.9306 45.04 38.0606 44.73C38.1906 44.415 38.3906 44.145 38.6606 43.92C38.9306 43.69 39.2806 43.5025 39.7106 43.3575C40.0356 43.2525 40.4156 43.1575 40.8506 43.0725C41.2906 42.9875 41.7656 42.91 42.2756 42.84C42.7906 42.765 43.3281 42.685 43.8881 42.6L43.2431 42.9675C43.2481 42.4075 43.1231 41.995 42.8681 41.73C42.6131 41.465 42.1831 41.3325 41.5781 41.3325C41.2131 41.3325 40.8606 41.4175 40.5206 41.5875C40.1806 41.7575 39.9431 42.05 39.8081 42.465L38.1581 41.9475C38.3581 41.2625 38.7381 40.7125 39.2981 40.2975C39.8631 39.8825 40.6231 39.675 41.5781 39.675C42.2981 39.675 42.9306 39.7925 43.4756 40.0275C44.0256 40.2625 44.4331 40.6475 44.6981 41.1825C44.8431 41.4675 44.9306 41.76 44.9606 42.06C44.9906 42.355 45.0056 42.6775 45.0056 43.0275V48H43.4231V46.245L43.6856 46.53C43.3206 47.115 42.8931 47.545 42.4031 47.82C41.9181 48.09 41.3106 48.225 40.5806 48.225ZM40.9406 46.785C41.3506 46.785 41.7006 46.7125 41.9906 46.5675C42.2806 46.4225 42.5106 46.245 42.6806 46.035C42.8556 45.825 42.9731 45.6275 43.0331 45.4425C43.1281 45.2125 43.1806 44.95 43.1906 44.655C43.2056 44.355 43.2131 44.1125 43.2131 43.9275L43.7681 44.0925C43.2231 44.1775 42.7556 44.2525 42.3656 44.3175C41.9756 44.3825 41.6406 44.445 41.3606 44.505C41.0806 44.56 40.8331 44.6225 40.6181 44.6925C40.4081 44.7675 40.2306 44.855 40.0856 44.955C39.9406 45.055 39.8281 45.17 39.7481 45.3C39.6731 45.43 39.6356 45.5825 39.6356 45.7575C39.6356 45.9575 39.6856 46.135 39.7856 46.29C39.8856 46.44 40.0306 46.56 40.2206 46.65C40.4156 46.74 40.6556 46.785 40.9406 46.785ZM46.9582 48V39.9H48.5557V41.8725L48.3607 41.6175C48.4607 41.3475 48.5932 41.1025 48.7582 40.8825C48.9282 40.6575 49.1307 40.4725 49.3657 40.3275C49.5657 40.1925 49.7857 40.0875 50.0257 40.0125C50.2707 39.9325 50.5207 39.885 50.7757 39.87C51.0307 39.85 51.2782 39.86 51.5182 39.9V41.5875C51.2782 41.5175 51.0007 41.495 50.6857 41.52C50.3757 41.545 50.0957 41.6325 49.8457 41.7825C49.5957 41.9175 49.3907 42.09 49.2307 42.3C49.0757 42.51 48.9607 42.75 48.8857 43.02C48.8107 43.285 48.7732 43.5725 48.7732 43.8825V48H46.9582ZM56.4854 48.225C55.6654 48.225 54.9454 48.0475 54.3254 47.6925C53.7054 47.3375 53.2204 46.845 52.8704 46.215C52.5254 45.585 52.3529 44.86 52.3529 44.04C52.3529 43.155 52.5229 42.3875 52.8629 41.7375C53.2029 41.0825 53.6754 40.575 54.2804 40.215C54.8854 39.855 55.5854 39.675 56.3804 39.675C57.2204 39.675 57.9329 39.8725 58.5179 40.2675C59.1079 40.6575 59.5454 41.21 59.8304 41.925C60.1154 42.64 60.2229 43.4825 60.1529 44.4525H58.3604V43.7925C58.3554 42.9125 58.2004 42.27 57.8954 41.865C57.5904 41.46 57.1104 41.2575 56.4554 41.2575C55.7154 41.2575 55.1654 41.4875 54.8054 41.9475C54.4454 42.4025 54.2654 43.07 54.2654 43.95C54.2654 44.77 54.4454 45.405 54.8054 45.855C55.1654 46.305 55.6904 46.53 56.3804 46.53C56.8254 46.53 57.2079 46.4325 57.5279 46.2375C57.8529 46.0375 58.1029 45.75 58.2779 45.375L60.0629 45.915C59.7529 46.645 59.2729 47.2125 58.6229 47.6175C57.9779 48.0225 57.2654 48.225 56.4854 48.225ZM53.6954 44.4525V43.0875H59.2679V44.4525H53.6954ZM61.6764 43.98V42.5625H66.1764V43.98H61.6764ZM68.1252 48V37.2H74.6277V39.0075H69.9327V41.7H73.7277V43.5H69.9327V48H68.1252ZM75.9768 48V39.9H77.5743V41.8725L77.3793 41.6175C77.4793 41.3475 77.6118 41.1025 77.7768 40.8825C77.9468 40.6575 78.1493 40.4725 78.3843 40.3275C78.5843 40.1925 78.8043 40.0875 79.0443 40.0125C79.2893 39.9325 79.5393 39.885 79.7943 39.87C80.0493 39.85 80.2968 39.86 80.5368 39.9V41.5875C80.2968 41.5175 80.0193 41.495 79.7043 41.52C79.3943 41.545 79.1143 41.6325 78.8643 41.7825C78.6143 41.9175 78.4093 42.09 78.2493 42.3C78.0943 42.51 77.9793 42.75 77.9043 43.02C77.8293 43.285 77.7918 43.5725 77.7918 43.8825V48H75.9768ZM85.504 48.225C84.684 48.225 83.964 48.0475 83.344 47.6925C82.724 47.3375 82.239 46.845 81.889 46.215C81.544 45.585 81.3715 44.86 81.3715 44.04C81.3715 43.155 81.5415 42.3875 81.8815 41.7375C82.2215 41.0825 82.694 40.575 83.299 40.215C83.904 39.855 84.604 39.675 85.399 39.675C86.239 39.675 86.9515 39.8725 87.5365 40.2675C88.1265 40.6575 88.564 41.21 88.849 41.925C89.134 42.64 89.2415 43.4825 89.1715 44.4525H87.379V43.7925C87.374 42.9125 87.219 42.27 86.914 41.865C86.609 41.46 86.129 41.2575 85.474 41.2575C84.734 41.2575 84.184 41.4875 83.824 41.9475C83.464 42.4025 83.284 43.07 83.284 43.95C83.284 44.77 83.464 45.405 83.824 45.855C84.184 46.305 84.709 46.53 85.399 46.53C85.844 46.53 86.2265 46.4325 86.5465 46.2375C86.8715 46.0375 87.1215 45.75 87.2965 45.375L89.0815 45.915C88.7715 46.645 88.2915 47.2125 87.6415 47.6175C86.9965 48.0225 86.284 48.225 85.504 48.225ZM82.714 44.4525V43.0875H88.2865V44.4525H82.714ZM94.5274 48.225C93.7074 48.225 92.9874 48.0475 92.3674 47.6925C91.7474 47.3375 91.2624 46.845 90.9124 46.215C90.5674 45.585 90.3949 44.86 90.3949 44.04C90.3949 43.155 90.5649 42.3875 90.9049 41.7375C91.2449 41.0825 91.7174 40.575 92.3224 40.215C92.9274 39.855 93.6274 39.675 94.4224 39.675C95.2624 39.675 95.9749 39.8725 96.5599 40.2675C97.1499 40.6575 97.5874 41.21 97.8724 41.925C98.1574 42.64 98.2649 43.4825 98.1949 44.4525H96.4024V43.7925C96.3974 42.9125 96.2424 42.27 95.9374 41.865C95.6324 41.46 95.1524 41.2575 94.4974 41.2575C93.7574 41.2575 93.2074 41.4875 92.8474 41.9475C92.4874 42.4025 92.3074 43.07 92.3074 43.95C92.3074 44.77 92.4874 45.405 92.8474 45.855C93.2074 46.305 93.7324 46.53 94.4224 46.53C94.8674 46.53 95.2499 46.4325 95.5699 46.2375C95.8949 46.0375 96.1449 45.75 96.3199 45.375L98.1049 45.915C97.7949 46.645 97.3149 47.2125 96.6649 47.6175C96.0199 48.0225 95.3074 48.225 94.5274 48.225ZM91.7374 44.4525V43.0875H97.3099V44.4525H91.7374Z" fill="#1C1C1C"/>
<path d="M390.274 48V37.2H391.901L395.636 44.85L399.371 37.2H400.999V48H399.311V41.0775L395.996 48H395.276L391.969 41.0775V48H390.274ZM405.371 48.225C404.786 48.225 404.291 48.115 403.886 47.895C403.481 47.67 403.173 47.3725 402.963 47.0025C402.758 46.6325 402.656 46.225 402.656 45.78C402.656 45.39 402.721 45.04 402.851 44.73C402.981 44.415 403.181 44.145 403.451 43.92C403.721 43.69 404.071 43.5025 404.501 43.3575C404.826 43.2525 405.206 43.1575 405.641 43.0725C406.081 42.9875 406.556 42.91 407.066 42.84C407.581 42.765 408.118 42.685 408.678 42.6L408.033 42.9675C408.038 42.4075 407.913 41.995 407.658 41.73C407.403 41.465 406.973 41.3325 406.368 41.3325C406.003 41.3325 405.651 41.4175 405.311 41.5875C404.971 41.7575 404.733 42.05 404.598 42.465L402.948 41.9475C403.148 41.2625 403.528 40.7125 404.088 40.2975C404.653 39.8825 405.413 39.675 406.368 39.675C407.088 39.675 407.721 39.7925 408.266 40.0275C408.816 40.2625 409.223 40.6475 409.488 41.1825C409.633 41.4675 409.721 41.76 409.751 42.06C409.781 42.355 409.796 42.6775 409.796 43.0275V48H408.213V46.245L408.476 46.53C408.111 47.115 407.683 47.545 407.193 47.82C406.708 48.09 406.101 48.225 405.371 48.225ZM405.731 46.785C406.141 46.785 406.491 46.7125 406.781 46.5675C407.071 46.4225 407.301 46.245 407.471 46.035C407.646 45.825 407.763 45.6275 407.823 45.4425C407.918 45.2125 407.971 44.95 407.981 44.655C407.996 44.355 408.003 44.1125 408.003 43.9275L408.558 44.0925C408.013 44.1775 407.546 44.2525 407.156 44.3175C406.766 44.3825 406.431 44.445 406.151 44.505C405.871 44.56 405.623 44.6225 405.408 44.6925C405.198 44.7675 405.021 44.855 404.876 44.955C404.731 45.055 404.618 45.17 404.538 45.3C404.463 45.43 404.426 45.5825 404.426 45.7575C404.426 45.9575 404.476 46.135 404.576 46.29C404.676 46.44 404.821 46.56 405.011 46.65C405.206 46.74 405.446 46.785 405.731 46.785ZM411.898 48V36.975H413.706V48H411.898ZM417.677 48L415.202 39.885L416.972 39.9L418.555 45.0975L420.16 39.9H421.682L423.28 45.0975L424.87 39.9H426.64L424.165 48H422.755L420.917 42.4275L419.087 48H417.677ZM429.804 48.225C429.219 48.225 428.724 48.115 428.319 47.895C427.914 47.67 427.607 47.3725 427.397 47.0025C427.192 46.6325 427.089 46.225 427.089 45.78C427.089 45.39 427.154 45.04 427.284 44.73C427.414 44.415 427.614 44.145 427.884 43.92C428.154 43.69 428.504 43.5025 428.934 43.3575C429.259 43.2525 429.639 43.1575 430.074 43.0725C430.514 42.9875 430.989 42.91 431.499 42.84C432.014 42.765 432.552 42.685 433.112 42.6L432.467 42.9675C432.472 42.4075 432.347 41.995 432.092 41.73C431.837 41.465 431.407 41.3325 430.802 41.3325C430.437 41.3325 430.084 41.4175 429.744 41.5875C429.404 41.7575 429.167 42.05 429.032 42.465L427.382 41.9475C427.582 41.2625 427.962 40.7125 428.522 40.2975C429.087 39.8825 429.847 39.675 430.802 39.675C431.522 39.675 432.154 39.7925 432.699 40.0275C433.249 40.2625 433.657 40.6475 433.922 41.1825C434.067 41.4675 434.154 41.76 434.184 42.06C434.214 42.355 434.229 42.6775 434.229 43.0275V48H432.647V46.245L432.909 46.53C432.544 47.115 432.117 47.545 431.627 47.82C431.142 48.09 430.534 48.225 429.804 48.225ZM430.164 46.785C430.574 46.785 430.924 46.7125 431.214 46.5675C431.504 46.4225 431.734 46.245 431.904 46.035C432.079 45.825 432.197 45.6275 432.257 45.4425C432.352 45.2125 432.404 44.95 432.414 44.655C432.429 44.355 432.437 44.1125 432.437 43.9275L432.992 44.0925C432.447 44.1775 431.979 44.2525 431.589 44.3175C431.199 44.3825 430.864 44.445 430.584 44.505C430.304 44.56 430.057 44.6225 429.842 44.6925C429.632 44.7675 429.454 44.855 429.309 44.955C429.164 45.055 429.052 45.17 428.972 45.3C428.897 45.43 428.859 45.5825 428.859 45.7575C428.859 45.9575 428.909 46.135 429.009 46.29C429.109 46.44 429.254 46.56 429.444 46.65C429.639 46.74 429.879 46.785 430.164 46.785ZM436.182 48V39.9H437.779V41.8725L437.584 41.6175C437.684 41.3475 437.817 41.1025 437.982 40.8825C438.152 40.6575 438.354 40.4725 438.589 40.3275C438.789 40.1925 439.009 40.0875 439.249 40.0125C439.494 39.9325 439.744 39.885 439.999 39.87C440.254 39.85 440.502 39.86 440.742 39.9V41.5875C440.502 41.5175 440.224 41.495 439.909 41.52C439.599 41.545 439.319 41.6325 439.069 41.7825C438.819 41.9175 438.614 42.09 438.454 42.3C438.299 42.51 438.184 42.75 438.109 43.02C438.034 43.285 437.997 43.5725 437.997 43.8825V48H436.182ZM445.709 48.225C444.889 48.225 444.169 48.0475 443.549 47.6925C442.929 47.3375 442.444 46.845 442.094 46.215C441.749 45.585 441.577 44.86 441.577 44.04C441.577 43.155 441.747 42.3875 442.087 41.7375C442.427 41.0825 442.899 40.575 443.504 40.215C444.109 39.855 444.809 39.675 445.604 39.675C446.444 39.675 447.157 39.8725 447.742 40.2675C448.332 40.6575 448.769 41.21 449.054 41.925C449.339 42.64 449.447 43.4825 449.377 44.4525H447.584V43.7925C447.579 42.9125 447.424 42.27 447.119 41.865C446.814 41.46 446.334 41.2575 445.679 41.2575C444.939 41.2575 444.389 41.4875 444.029 41.9475C443.669 42.4025 443.489 43.07 443.489 43.95C443.489 44.77 443.669 45.405 444.029 45.855C444.389 46.305 444.914 46.53 445.604 46.53C446.049 46.53 446.432 46.4325 446.752 46.2375C447.077 46.0375 447.327 45.75 447.502 45.375L449.287 45.915C448.977 46.645 448.497 47.2125 447.847 47.6175C447.202 48.0225 446.489 48.225 445.709 48.225ZM442.919 44.4525V43.0875H448.492V44.4525H442.919Z" fill="#1C1C1C"/>
<path d="M16.5 59.5V90L85.5 159" stroke="black"/>
<path d="M434 59.5V90L365 159" stroke="black"/>
</svg>
