<svg width="450" height="476" viewBox="0 0 450 476" fill="none" xmlns="http://www.w3.org/2000/svg">
<circle cx="225" cy="251" r="215" stroke="#FD0001" stroke-width="20"/>
<circle opacity="0.4" cx="225" cy="251" r="165" stroke="url(#paint0_angular_615_7982)" stroke-width="20"/>
<mask id="mask0_615_7982" style="mask-type:alpha" maskUnits="userSpaceOnUse" x="50" y="76" width="350" height="350">
<circle cx="225" cy="251" r="165" stroke="#FD0001" stroke-width="20"/>
</mask>
<g mask="url(#mask0_615_7982)">
<line x1="225.998" y1="251.063" x2="215.01" y2="425.717" stroke="#1C1C1C" stroke-width="2"/>
<line x1="225.992" y1="251.125" x2="204.059" y2="424.745" stroke="#1C1C1C" stroke-width="2"/>
<line x1="225.982" y1="251.187" x2="193.191" y2="423.088" stroke="#1C1C1C" stroke-width="2"/>
<line x1="225.969" y1="251.249" x2="182.448" y2="420.751" stroke="#1C1C1C" stroke-width="2"/>
<line x1="225.951" y1="251.309" x2="171.873" y2="417.744" stroke="#1C1C1C" stroke-width="2"/>
<line x1="225.93" y1="251.368" x2="161.508" y2="414.079" stroke="#1C1C1C" stroke-width="2"/>
<line x1="225.905" y1="251.426" x2="151.393" y2="409.771" stroke="#1C1C1C" stroke-width="2"/>
<line x1="225.876" y1="251.482" x2="141.569" y2="404.835" stroke="#1C1C1C" stroke-width="2"/>
<line x1="225.844" y1="251.536" x2="132.075" y2="399.293" stroke="#1C1C1C" stroke-width="2"/>
<line x1="225.809" y1="251.588" x2="122.947" y2="393.166" stroke="#1C1C1C" stroke-width="2"/>
<line x1="225.771" y1="251.637" x2="114.221" y2="386.477" stroke="#1C1C1C" stroke-width="2"/>
<line x1="225.729" y1="251.685" x2="105.933" y2="379.254" stroke="#1C1C1C" stroke-width="2"/>
<line x1="225.685" y1="251.729" x2="98.115" y2="371.525" stroke="#1C1C1C" stroke-width="2"/>
<line x1="225.637" y1="251.771" x2="90.7976" y2="363.32" stroke="#1C1C1C" stroke-width="2"/>
<line x1="225.588" y1="251.809" x2="84.0098" y2="354.671" stroke="#1C1C1C" stroke-width="2"/>
<line x1="225.536" y1="251.844" x2="77.7784" y2="345.614" stroke="#1C1C1C" stroke-width="2"/>
<line x1="225.482" y1="251.876" x2="72.1281" y2="336.183" stroke="#1C1C1C" stroke-width="2"/>
<line x1="225.426" y1="251.905" x2="67.081" y2="326.416" stroke="#1C1C1C" stroke-width="2"/>
<line x1="225.368" y1="251.93" x2="62.6572" y2="316.352" stroke="#1C1C1C" stroke-width="2"/>
<line x1="225.309" y1="251.951" x2="58.8741" y2="306.029" stroke="#1C1C1C" stroke-width="2"/>
<line x1="225.249" y1="251.969" x2="55.7466" y2="295.489" stroke="#1C1C1C" stroke-width="2"/>
<line x1="225.187" y1="251.982" x2="53.2871" y2="284.774" stroke="#1C1C1C" stroke-width="2"/>
<line x1="225.125" y1="251.992" x2="51.5053" y2="273.925" stroke="#1C1C1C" stroke-width="2"/>
<line x1="225.063" y1="251.998" x2="50.4081" y2="262.986" stroke="#1C1C1C" stroke-width="2"/>
<line x1="225" y1="252" x2="50" y2="252" stroke="#1C1C1C" stroke-width="2"/>
<line x1="224.937" y1="251.998" x2="50.2825" y2="241.01" stroke="#1C1C1C" stroke-width="2"/>
<line x1="224.875" y1="251.992" x2="51.2546" y2="230.059" stroke="#1C1C1C" stroke-width="2"/>
<line x1="224.813" y1="251.982" x2="52.9123" y2="219.191" stroke="#1C1C1C" stroke-width="2"/>
<line x1="224.751" y1="251.969" x2="55.2492" y2="208.448" stroke="#1C1C1C" stroke-width="2"/>
<line x1="224.691" y1="251.951" x2="58.2561" y2="197.873" stroke="#1C1C1C" stroke-width="2"/>
<line x1="224.632" y1="251.93" x2="61.921" y2="187.508" stroke="#1C1C1C" stroke-width="2"/>
<line x1="224.574" y1="251.905" x2="66.2295" y2="177.393" stroke="#1C1C1C" stroke-width="2"/>
<line x1="224.518" y1="251.876" x2="71.1646" y2="167.569" stroke="#1C1C1C" stroke-width="2"/>
<line x1="224.464" y1="251.844" x2="76.7068" y2="158.075" stroke="#1C1C1C" stroke-width="2"/>
<line x1="224.412" y1="251.809" x2="82.8342" y2="148.947" stroke="#1C1C1C" stroke-width="2"/>
<line x1="224.363" y1="251.771" x2="89.5228" y2="140.221" stroke="#1C1C1C" stroke-width="2"/>
<line x1="224.315" y1="251.729" x2="96.7459" y2="131.933" stroke="#1C1C1C" stroke-width="2"/>
<line x1="224.271" y1="251.685" x2="104.475" y2="124.115" stroke="#1C1C1C" stroke-width="2"/>
<line x1="224.229" y1="251.637" x2="112.68" y2="116.798" stroke="#1C1C1C" stroke-width="2"/>
<line x1="224.191" y1="251.588" x2="121.329" y2="110.01" stroke="#1C1C1C" stroke-width="2"/>
<line x1="224.156" y1="251.536" x2="130.386" y2="103.778" stroke="#1C1C1C" stroke-width="2"/>
<line x1="224.124" y1="251.482" x2="139.817" y2="98.1281" stroke="#1C1C1C" stroke-width="2"/>
<line x1="224.095" y1="251.426" x2="149.584" y2="93.081" stroke="#1C1C1C" stroke-width="2"/>
<line x1="224.07" y1="251.368" x2="159.648" y2="88.6572" stroke="#1C1C1C" stroke-width="2"/>
<line x1="224.049" y1="251.309" x2="169.971" y2="84.8741" stroke="#1C1C1C" stroke-width="2"/>
<line x1="224.031" y1="251.249" x2="180.511" y2="81.7466" stroke="#1C1C1C" stroke-width="2"/>
<line x1="224.018" y1="251.187" x2="191.226" y2="79.2871" stroke="#1C1C1C" stroke-width="2"/>
<line x1="224.008" y1="251.125" x2="202.075" y2="77.5053" stroke="#1C1C1C" stroke-width="2"/>
<line x1="224.002" y1="251.063" x2="213.014" y2="76.4081" stroke="#1C1C1C" stroke-width="2"/>
<line x1="224" y1="251" x2="224" y2="76" stroke="#1C1C1C" stroke-width="2"/>
<line x1="224.002" y1="250.937" x2="234.99" y2="76.2825" stroke="#1C1C1C" stroke-width="2"/>
<line x1="224.008" y1="250.875" x2="245.941" y2="77.2546" stroke="#1C1C1C" stroke-width="2"/>
<line x1="224.018" y1="250.813" x2="256.809" y2="78.9123" stroke="#1C1C1C" stroke-width="2"/>
<line x1="224.031" y1="250.751" x2="267.552" y2="81.2492" stroke="#1C1C1C" stroke-width="2"/>
<line x1="224.049" y1="250.691" x2="278.127" y2="84.2561" stroke="#1C1C1C" stroke-width="2"/>
<line x1="224.07" y1="250.632" x2="288.492" y2="87.921" stroke="#1C1C1C" stroke-width="2"/>
<line x1="224.095" y1="250.574" x2="298.607" y2="92.2295" stroke="#1C1C1C" stroke-width="2"/>
<line x1="224.124" y1="250.518" x2="308.431" y2="97.1646" stroke="#1C1C1C" stroke-width="2"/>
<line x1="224.156" y1="250.464" x2="317.925" y2="102.707" stroke="#1C1C1C" stroke-width="2"/>
<line x1="224.191" y1="250.412" x2="327.053" y2="108.834" stroke="#1C1C1C" stroke-width="2"/>
<line x1="224.229" y1="250.363" x2="335.779" y2="115.523" stroke="#1C1C1C" stroke-width="2"/>
<line x1="224.271" y1="250.315" x2="344.067" y2="122.746" stroke="#1C1C1C" stroke-width="2"/>
<line x1="224.315" y1="250.271" x2="351.885" y2="130.475" stroke="#1C1C1C" stroke-width="2"/>
<line x1="224.363" y1="250.229" x2="359.202" y2="138.68" stroke="#1C1C1C" stroke-width="2"/>
<line x1="224.412" y1="250.191" x2="365.99" y2="147.329" stroke="#1C1C1C" stroke-width="2"/>
<line x1="224.464" y1="250.156" x2="372.222" y2="156.386" stroke="#1C1C1C" stroke-width="2"/>
<line x1="224.518" y1="250.124" x2="377.872" y2="165.817" stroke="#1C1C1C" stroke-width="2"/>
<line x1="224.574" y1="250.095" x2="382.919" y2="175.584" stroke="#1C1C1C" stroke-width="2"/>
<line x1="224.632" y1="250.07" x2="387.343" y2="185.648" stroke="#1C1C1C" stroke-width="2"/>
<line x1="224.691" y1="250.049" x2="391.126" y2="195.971" stroke="#1C1C1C" stroke-width="2"/>
<line x1="224.751" y1="250.031" x2="394.253" y2="206.511" stroke="#1C1C1C" stroke-width="2"/>
<line x1="224.813" y1="250.018" x2="396.713" y2="217.226" stroke="#1C1C1C" stroke-width="2"/>
<line x1="224.875" y1="250.008" x2="398.495" y2="228.075" stroke="#1C1C1C" stroke-width="2"/>
<line x1="224.937" y1="250.002" x2="399.592" y2="239.014" stroke="#1C1C1C" stroke-width="2"/>
<line x1="225" y1="250" x2="400" y2="250" stroke="#1C1C1C" stroke-width="2"/>
<line x1="225.063" y1="250.002" x2="399.717" y2="260.99" stroke="#1C1C1C" stroke-width="2"/>
<line x1="225.125" y1="250.008" x2="398.745" y2="271.941" stroke="#1C1C1C" stroke-width="2"/>
<line x1="225.187" y1="250.018" x2="397.088" y2="282.809" stroke="#1C1C1C" stroke-width="2"/>
<line x1="225.249" y1="250.031" x2="394.751" y2="293.552" stroke="#1C1C1C" stroke-width="2"/>
<line x1="225.309" y1="250.049" x2="391.744" y2="304.127" stroke="#1C1C1C" stroke-width="2"/>
<line x1="225.368" y1="250.07" x2="388.079" y2="314.492" stroke="#1C1C1C" stroke-width="2"/>
<line x1="225.426" y1="250.095" x2="383.771" y2="324.607" stroke="#1C1C1C" stroke-width="2"/>
<line x1="225.482" y1="250.124" x2="378.835" y2="334.431" stroke="#1C1C1C" stroke-width="2"/>
<line x1="225.536" y1="250.156" x2="373.293" y2="343.925" stroke="#1C1C1C" stroke-width="2"/>
<line x1="225.588" y1="250.191" x2="367.166" y2="353.053" stroke="#1C1C1C" stroke-width="2"/>
<line x1="225.637" y1="250.229" x2="360.477" y2="361.779" stroke="#1C1C1C" stroke-width="2"/>
<line x1="225.685" y1="250.271" x2="353.254" y2="370.067" stroke="#1C1C1C" stroke-width="2"/>
<line x1="225.729" y1="250.315" x2="345.525" y2="377.885" stroke="#1C1C1C" stroke-width="2"/>
<line x1="225.771" y1="250.363" x2="337.32" y2="385.202" stroke="#1C1C1C" stroke-width="2"/>
<line x1="225.809" y1="250.412" x2="328.671" y2="391.99" stroke="#1C1C1C" stroke-width="2"/>
<line x1="225.844" y1="250.464" x2="319.614" y2="398.222" stroke="#1C1C1C" stroke-width="2"/>
<line x1="225.876" y1="250.518" x2="310.183" y2="403.872" stroke="#1C1C1C" stroke-width="2"/>
<line x1="225.905" y1="250.574" x2="300.416" y2="408.919" stroke="#1C1C1C" stroke-width="2"/>
<line x1="225.93" y1="250.632" x2="290.352" y2="413.343" stroke="#1C1C1C" stroke-width="2"/>
<line x1="225.951" y1="250.691" x2="280.029" y2="417.126" stroke="#1C1C1C" stroke-width="2"/>
<line x1="225.969" y1="250.751" x2="269.489" y2="420.253" stroke="#1C1C1C" stroke-width="2"/>
<line x1="225.982" y1="250.813" x2="258.774" y2="422.713" stroke="#1C1C1C" stroke-width="2"/>
<line x1="225.992" y1="250.875" x2="247.925" y2="424.495" stroke="#1C1C1C" stroke-width="2"/>
<line x1="225.998" y1="250.937" x2="236.986" y2="425.592" stroke="#1C1C1C" stroke-width="2"/>
<line x1="226" y1="251" x2="226" y2="426" stroke="#1C1C1C" stroke-width="2"/>
</g>
<rect x="205" width="40" height="22" rx="3" fill="#1C1C1C"/>
<rect x="264.528" y="1.19824" width="40" height="22" rx="3" transform="rotate(15 264.528 1.19824)" fill="#1C1C1C"/>
<rect width="40" height="22" rx="3" transform="matrix(-0.965926 0.258819 0.258819 0.965926 185.637 1.19824)" fill="#1C1C1C"/>
<path d="M167.708 269H151.624V265.792H148.416V262.584H145.208V230.438H148.416V227.23H151.624V224H167.708V227.23H170.916V230.438H174.124V262.584H170.916V265.792H167.708V269ZM154.832 262.584H164.478V259.376H167.708V233.646H164.478V230.438H154.832V233.646H151.624V259.376H154.832V262.584Z" fill="black"/>
<path d="M194.998 269H188.56V235.25H178.936V230.438H188.56V224H194.998V269Z" fill="black"/>
<path d="M207.874 233.646H204.666V230.438H201.458V224H207.874V233.646ZM204.666 236.876H201.458V233.646H204.666V236.876Z" fill="black"/>
<path d="M220.706 243.292H214.29V236.876H220.706V243.292ZM220.706 269H214.29V262.584H220.706V269Z" fill="black"/>
<path d="M256.038 269H227.122V259.376H230.33V256.146H233.538V252.938H236.746V249.73H239.976V246.5H243.184V243.292H246.392V240.084H249.622V233.646H246.392V230.438H236.746V233.646H233.538V236.876H227.122V230.438H230.33V227.23H233.538V224H249.622V227.23H252.83V230.438H256.038V243.292H252.83V246.5H249.622V249.73H246.392V252.938H243.184V256.146H239.976V259.376H236.746V262.584H256.038V269Z" fill="black"/>
<path d="M284.91 269H278.472V259.376H259.202V249.73H262.41V243.292H265.618V236.876H268.826V230.438H272.056V224H284.91V254.542H288.118V259.376H284.91V269ZM265.618 254.542H278.472V230.438H275.264V236.876H272.056V243.292H268.826V249.73H265.618V254.542Z" fill="black"/>
<path d="M297.786 233.646H294.578V230.438H291.37V224H297.786V233.646ZM294.578 236.876H291.37V233.646H294.578V236.876Z" fill="black"/>
<path d="M310.618 233.646H307.41V230.438H304.202V224H310.618V233.646ZM307.41 236.876H304.202V233.646H307.41V236.876Z" fill="black"/>
<defs>
<radialGradient id="paint0_angular_615_7982" cx="0" cy="0" r="1" gradientUnits="userSpaceOnUse" gradientTransform="translate(225 251) rotate(-90) scale(175)">
<stop stop-color="#FD0001"/>
<stop offset="1" stop-color="#FD0001" stop-opacity="0"/>
</radialGradient>
</defs>
</svg>
